<svg width="32" height="32" viewBox="0 0 32 32" fill="none" xmlns="http://www.w3.org/2000/svg">
<g clip-path="url(#clip0_3045_3657)">
<path d="M4.8291 17.5942C5.40472 18.8969 6.7528 19.9003 8.50053 20.5501L8.59 20.5199L8.61088 20.5048C8.92137 20.2689 9.27527 20.0983 9.65176 20.0031C16.2132 18.4707 20.6869 16.2825 21.1462 10.7576C18.9601 13.8888 15.7122 14.7773 12.4046 14.7773C10.4325 14.736 8.46846 14.5083 6.53806 14.0973C6.48945 14.0929 6.44054 14.0929 6.39192 14.0973C6.2554 14.1033 6.11967 14.1216 5.9863 14.1517C5.88794 14.1699 5.78802 14.178 5.68806 14.1759C5.411 14.1719 5.13626 14.124 4.87384 14.0339C4.8367 14.0195 4.79726 14.0123 4.75753 14.0127C4.69745 14.0094 4.63768 14.0233 4.58496 14.0526C4.53225 14.082 4.48871 14.1258 4.45928 14.1789L4.02681 16.0679C3.98843 16.1412 3.97409 16.2249 3.98589 16.307C3.99769 16.3891 4.03501 16.4652 4.09243 16.5243C4.40188 16.8311 4.65176 17.194 4.8291 17.5942Z" fill="#8BD32E"/>
<path d="M24.2123 6.66226C24.2332 6.49608 24.2651 6.33149 24.3077 6.16961C24.3495 5.99129 24.3912 5.83413 24.3912 5.83413L24.3733 5.77065L24.254 5.3445L24.1556 4.9939L23.3742 5.22058L22.4168 5.49562L22.2349 5.547L21.8293 5.66488L21.358 5.79786L21.5937 6.63808L21.7965 6.87383C21.9217 7.02495 22.0768 7.20931 22.1544 7.31509C22.1739 7.33661 22.19 7.3611 22.2021 7.38765C22.2945 7.6113 22.3721 7.81078 22.4377 7.99212C22.6499 8.62612 22.7861 9.28368 22.8433 9.95063C22.7568 17.3646 16.7949 19.8852 11.5099 21.2574C11.1699 21.345 10.8329 21.4297 10.5018 21.5083L10.0187 21.6231C9.91273 21.6491 9.81189 21.693 9.72042 21.7531C9.64585 21.7984 9.57427 21.8498 9.50568 21.8981C9.17187 22.1061 8.79312 22.2285 8.40217 22.2548C8.32105 22.2587 8.24376 22.291 8.18342 22.3461C8.12308 22.4011 8.0834 22.4757 8.07111 22.557L8.44392 24.5488C8.43674 24.6351 8.45724 24.7214 8.50239 24.7949C8.54753 24.8684 8.61489 24.9252 8.69444 24.9568C9.11496 25.1283 9.50106 25.3762 9.83375 25.6882C10.7911 26.5708 12.2197 26.9758 13.8899 26.9758C19.9175 26.9758 28.8262 21.6201 27.9255 14.3331C27.8181 13.4804 27.5244 12.6627 27.0657 11.9396C26.6071 11.2165 25.9949 10.6061 25.274 10.1531C25.2442 10.135 25.2204 10.1169 25.1905 10.1017C24.9055 9.66154 24.6921 9.17786 24.5582 8.66914C24.4609 8.32576 24.3852 7.97647 24.3316 7.62338C24.2839 7.29999 24.2421 6.9645 24.2123 6.66226Z" fill="#8BD32E"/>
</g>
<defs>
<clipPath id="clip0_3045_3657">
<rect width="24" height="22" fill="white" transform="translate(4 5)"/>
</clipPath>
</defs>
</svg>
